# AST/ASF file generated using VICON BodyLanguage
# -----------------------------------------------
:version 1.10
:name VICON
:units
  mass 1.0
  length 0.45
  angle deg
:documentation
   .ast/.asf automatically generated from VICON data using
   VICON BodyBuilder and BodyLanguage model FoxedUp or BRILLIANT.MOD
:root
   order TX TY TZ RX RY RZ
   axis XYZ
   position 0 0 0  
   orientation 0 0 0 
:bonedata
  begin
     id 1 
     name lhipjoint
     direction 0.611804 -0.747784 0.257906 
     length 2.29243 
     axis 0 0 0  XYZ
  end
  begin
     id 2 
     name lfemur
     direction 0.34202 -0.939693 0  
     length 7.31159  
     axis 0 0 20  XYZ
    dof rx ry rz
    limits (-160.0 20.0)
           (-70.0 70.0)
           (-60.0 70.0)
  end
  begin
     id 3 
     name ltibia
     direction 0.34202 -0.939693 0   
     length 7.33391   
     axis 0 0 20   XYZ
    dof rx
    limits (-10.0 170.0)
  end
  begin
     id 4 
     name lfoot
     direction 0.122263 -0.335914 0.933924   
     length 1.76083   
     axis -90 7.62852e-016 20   XYZ
    dof rx rz
    limits (-45.0 90.0)
           (-70.0 20.0)
  end
  begin
     id 5 
     name ltoes
     direction 1.53533e-011 -4.2177e-011 1   
     length 0.879206   
     axis -90 7.62852e-016 20   XYZ
    dof rx
    limits (-90.0 20.0)
  end
  begin
     id 6 
     name rhipjoint
     direction -0.646469 -0.721248 0.248754   
     length 2.37677  
     axis 0 0 0  XYZ 
  end
  begin
     id 7 
     name rfemur
     direction -0.34202 -0.939693 0   
     length 7.18623   
     axis 0 0 -20   XYZ
    dof rx ry rz
    limits (-160.0 20.0)
           (-70.0 70.0)
           (-70.0 60.0)
  end
  begin
     id 8 
     name rtibia
     direction -0.34202 -0.939693 0   
     length 7.36567   
     axis 0 0 -20   XYZ
    dof rx
    limits (-10.0 170.0)
 end
 begin
     id 9 
     name rfoot
     direction -0.126681 -0.348054 0.928876   
     length 1.71902  
     axis -90 -7.62852e-016 -20   XYZ
    dof rx rz
    limits (-45.0 90.0)
           (-20.0 70.0)
  end
  begin
     id 10 
     name rtoes
     direction -1.53551e-011 -4.21898e-011 1   
     length 0.857792   
     axis -90 -7.62852e-016 -20   XYZ
    dof rx
    limits (-90.0 20.0)
  end
  begin
     id 11 
     name lowerback
     direction 0.0106509 0.999778 0.0181844   
     length 2.07668   
     axis 0 0 0   XYZ
    dof rx ry rz
    limits (-20.0 45.0)
           (-30.0 30.0)
           (-30.0 30.0)
  end
  begin
     id 12 
     name upperback
     direction -0.00456018 0.999989 -0.000590935   
     length 2.08011   
     axis 0 0 0   XYZ
    dof rx ry rz
    limits (-20.0 45.0)
           (-30.0 30.0)
           (-30.0 30.0)
  end
  begin
     id 13 
     name thorax
     direction -0.00910382 0.999916 -0.00923765   
     length 2.07397   
     axis 0 0 0   XYZ
    dof rx ry rz
    limits (-20.0 45.0)
           (-30.0 30.0)
           (-30.0 30.0)
  end
  begin
     id 14 
     name lowerneck
     direction 0.00171967 0.99778 0.0665733   
     length 1.67556   
     axis 0 0 0   XYZ
    dof rx ry rz
    limits (-20.0 45.0)
           (-30.0 30.0)
           (-30.0 30.0)
  end
  begin
     id 15 
     name upperneck
     direction -0.0143166 0.991302 -0.130828   
     length 1.68462   
     axis 0 0 0   XYZ
    dof rx ry rz
    limits (-20.0 45.0)
           (-30.0 30.0)
           (-30.0 30.0)
  end
  begin
     id 16
     name head
     direction -0.00606378 0.998665 -0.0512995  
     length 1.69269  
     axis 0 0 0   XYZ
    dof rx ry rz
    limits (-20.0 45.0)
           (-30.0 30.0)
           (-30.0 30.0)
  end
  begin
     id 17 
     name lclavicle
     direction 0.9638 0.179341 0.197297  
     length 4.12888  
     axis 0 0 0   XYZ
    dof ry rz
    limits (-20.0 10.0)
           (0.0 20.0)
  end
  begin
     id 18 
     name lhumerus
     direction 1 -4.48972e-011 -2.47351e-027   
     length 5.01834   
     axis -180 -30 -90   XYZ
    dof rx ry rz
    limits (-60.0 90.0)
           (-90.0 90.0)
           (-90.0 90.0)
  end
  begin
     id 19
     name lradius
     direction 1 -4.48965e-011 1.51591e-026   
     length 3.4869   
     axis -180 -30 -90   XYZ
    dof rx
    limits (-10.0 170.0)
  end
  begin
     id 20
     name lwrist
     direction 1 -4.48957e-011 2.70032e-026   
     length 1.74345   
     axis -1.81515e-014 90 90   XYZ
    dof ry
    limits (-180.0 0.0)
 end
  begin
     id 21 
     name lhand
     direction 1 -4.48951e-011 5.40064e-026   
     length 0.76799   
     axis -3.44607e-014 90 90   XYZ
    dof rx rz
    limits (-90.0 90.0)
           (-45.0 45.0)
  end
  begin
     id 22 
     name lfingers
     direction 1 -4.48971e-011 1.08013e-025   
     length 0.619174   
     axis -6.89214e-014 90 90   XYZ
    dof rx
    limits (0.0 90.0)
  end
  begin
     id 23
     name lthumb
     direction 0.707107 -6.34931e-011 0.707107   
     length 0.889013   
     axis -90 45 2.85299e-015   XYZ
    dof rx rz
    limits (-45.0 45.0)
           (-45.0 45.0)
  end
  begin
     id 24 
     name rclavicle
     direction -0.961409 0.252588 0.109054   
     length 4.04305  
     axis 0 0 0   XYZ 
    dof ry rz
    limits (-10.0 20.0)
           (-20.0 0.0)
  end
  begin
     id 25 
     name rhumerus
     direction -1 -4.4897e-011 1.33872e-017  
     length 4.70164   
     axis -180 30 90   XYZ
    dof rx ry rz
    limits (-90.0 60.0)
           (-90.0 90.0)
           (-90.0 90.0)
  end
  begin
     id 26 
     name rradius
     direction -1 -4.48954e-011 1.83844e-026   
     length 3.49911   
     axis -180 30 90   XYZ
    dof rx
    limits (-10.0 170.0)
  end
  begin
     id 27 
     name rwrist
     direction -1 -4.49008e-011 2.70032e-026   
     length 1.74955   
     axis -1.81515e-014 -90 -90   XYZ
    dof ry
    limits (-180.0 0.0)
  end
  begin
     id 28
     name rhand
     direction -1 -4.48916e-011 5.40064e-026   
     length 0.739335   
     axis -3.44607e-014 -90 -90   XYZ
    dof rx rz
    limits (-90.0 90.0)
           (-45.0 45.0)
  end
  begin
     id 29
     name rfingers
     direction -1 -4.48987e-011 1.08013e-025   
     length 0.596071   
     axis -6.89214e-014 -90 -90   XYZ
    dof rx
    limits (0.0 90.0)
  end
  begin
     id 30
     name rthumb
     direction -0.707107 -6.34935e-011 0.707107   
     length 0.855843   
     axis -90 -45 -2.85299e-015   XYZ
    dof rx rz
    limits (-45.0 45.0)
           (-45.0 45.0)
  end
:hierarchy
  begin
    root lhipjoint rhipjoint lowerback
    lhipjoint lfemur
    lfemur ltibia
    ltibia lfoot
    lfoot ltoes
    rhipjoint rfemur
    rfemur rtibia
    rtibia rfoot
    rfoot rtoes
    lowerback upperback
    upperback thorax
    thorax lowerneck lclavicle rclavicle
    lowerneck upperneck
    upperneck head
    lclavicle lhumerus
    lhumerus lradius
    lradius lwrist
    lwrist lhand lthumb
    lhand lfingers
    rclavicle rhumerus
    rhumerus rradius
    rradius rwrist
    rwrist rhand rthumb
    rhand rfingers
  end

#!OML:ASF I:\salsa\salsa 7_09\Patient 1\Session 1\dancermale.ASF
:FULLY-SPECIFIED
:DEGREES
1278
root 0.101556 17.6966 -1.39347 397.865 101.329 385.855
lowerback -9.37174 -3.44916 -0.22628
upperback -0.10165 -4.61327 1.19481
thorax 5.25975 -2.28834 0.734504
lowerneck -6.66156 -14.269 -8.80697
upperneck 16.0306 -19.7218 8.46107
head 7.75349 -9.31164 2.15909
rclavicle 5.46658e-015 -1.74931e-014
rhumerus -33.1389 59.6265 -68.0529
rradius 107.882
rwrist 53.2649
rhand 19.2806 12.0344
rfingers 7.12502
rthumb 43.8644 -11.8989
lclavicle 5.46658e-015 -1.74931e-014
lhumerus -87.2511 -32.238 114.83
lradius 71.4884
lwrist 5.47085
lhand -12.6452 54.0526
lfingers 7.12502
lthumb 13.4352 443.599
rfemur -25.4992 20.5633 6.95602
rtibia 27.673
rfoot 1.71249 19.0032
rtoes 29.1874
lfemur -14.0618 -8.71715 -10.9028
ltibia 24.3824
lfoot -22.7557 -1.34317
ltoes -21.4222
1279
root -0.0235146 17.6932 -1.55332 403.375 99.4086 391.256
lowerback -9.42763 -3.43947 -0.274968
upperback 0.0519631 -4.60253 1.23619
thorax 5.45956 -2.28572 0.796777
lowerneck -7.00917 -14.0673 -8.63586
upperneck 15.9243 -19.4605 8.56519
head 7.74845 -9.16271 2.18094
rclavicle 8.94531e-016 -3.18055e-015
rhumerus -28.5812 60.4285 -63.8664
rradius 108.947
rwrist 53.1548
rhand 18.0528 12.1795
rfingers 7.12502
rthumb 42.717 -12.1657
lclavicle 8.94531e-016 -3.18055e-015
lhumerus -84.1296 -33.966 111.598
lradius 71.355
lwrist 5.03632
lhand -12.9976 55.5851
lfingers 7.12502
lthumb 13.0955 445.154
rfemur -26.0557 18.6745 7.38069
rtibia 29.0317
rfoot -2.26171 14.2581
rtoes 23.527
lfemur -13.9152 -6.09762 -11.9865
ltibia 23.9719
lfoot -22.7413 -0.630793
ltoes -21.2469
1280
root -0.144716 17.6838 -1.71155 411.412 97.6005 399.212
lowerback -9.41133 -3.36951 -0.260171
upperback 0.106593 -4.51156 1.20871
thorax 5.50236 -2.24077 0.771992
lowerneck -7.11192 -13.8622 -8.45269
upperneck 15.7502 -19.175 8.51685
head 7.65942 -9.02525 2.17799
rclavicle 2.62396e-014 1.03368e-014
rhumerus -24.1794 61.1548 -59.6648
rradius 110.13
rwrist 52.9279
rhand 17.3428 12.7099
rfingers 7.12502
rthumb 42.0522 -11.8627
lclavicle 2.62396e-014 1.03368e-014
lhumerus -80.7485 -35.3801 108.277
lradius 71.0983
lwrist 4.91311
lhand -14.061 55.0218
lfingers 7.12502
lthumb 12.0703 444.654
rfemur -26.5561 16.3042 8.23687
rtibia 30.8628
rfoot -6.04212 7.49304
rtoes 16.7626
lfemur -13.8382 -3.67588 -13.0199
ltibia 23.6407
lfoot -22.7608 -0.255248
ltoes -20.5489
1281
root -0.257859 17.6606 -1.87159 422.316 95.7616 410.241
lowerback -9.24269 -3.29239 -0.469545
upperback 0.170914 -4.38001 1.04548
thorax 5.47491 -2.18114 0.745389
lowerneck -7.10099 -13.6425 -8.30117
upperneck 15.5917 -18.8556 8.3772
head 7.54744 -8.8841 2.16302
rclavicle -4.47266e-015 -3.97569e-015
rhumerus -19.546 61.7766 -55.1861
rradius 111.319
rwrist 52.543
rhand 16.8934 13.5253
rfingers 7.12502
rthumb 41.6308 -11.1873
lclavicle -4.47266e-015 -3.97569e-015
lhumerus -77.1507 -36.4322 105.063
lradius 70.9344
lwrist 4.64808
lhand -14.3973 55.2779
lfingers 7.12502
lthumb 11.746 444.929
rfemur -26.8113 13.2464 9.16062
rtibia 33.1644
rfoot -8.68675 -0.014973
rtoes 16.5003
lfemur -13.5718 -1.73533 -14.4017
ltibia 23.379
lfoot -22.7965 0.235854
ltoes -20.7385
1282
root -0.368889 17.6315 -2.02746 445.075 94.2132 433.184
lowerback -9.06745 -3.13969 -0.728836
upperback 0.242343 -4.14144 0.853847
thorax 5.44996 -2.06961 0.731824
lowerneck -7.09092 -13.3577 -8.16858
upperneck 15.4756 -18.4323 8.1525
head 7.43507 -8.69954 2.13593
rclavicle -4.47266e-015 2.22639e-014
rhumerus -14.4528 62.2328 -50.2362
rradius 112.513
rwrist 52.1115
rhand 16.069 14.1554
rfingers 7.12502
rthumb 40.8569 -10.8063
lclavicle -4.47266e-015 2.22639e-014
lhumerus -73.275 -36.9163 101.89
lradius 70.8062
lwrist 4.34532
lhand -14.644 55.6166
lfingers 7.12502
lthumb 11.5081 445.281
rfemur -27.2679 9.80722 10.2314
rtibia 36.1588
rfoot -10.4028 -6.08237
rtoes 12.659
lfemur -13.3325 0.0332545 -15.7881
ltibia 23.2374
lfoot -22.6234 0.992127
ltoes -21.6835
1283
root -0.477157 17.5989 -2.17515 482.701 94.0126 470.98
lowerback -8.85877 -2.88663 -0.851131
upperback 0.221257 -3.7799 0.611328
thorax 5.29294 -1.892 0.610033
lowerneck -7.07396 -13.0108 -7.87753
upperneck 15.4894 -17.9231 7.75788
head 7.32713 -8.47416 2.04241
rclavicle 6.08281e-014 -7.95139e-016
rhumerus -9.63372 62.4812 -45.5461
rradius 113.728
rwrist 51.7732
rhand 14.8281 14.6632
rfingers 7.12502
rthumb 39.6898 -10.6557
lclavicle 6.08281e-014 -7.95139e-016
lhumerus -69.3027 -36.8043 98.7575
lradius 70.6023
lwrist 4.47685
lhand -15.3808 55.4496
lfingers 7.12502
lthumb 10.7975 445.152
rfemur -27.9719 6.27574 11.5535
rtibia 39.7916
rfoot -11.5698 -9.8368
rtoes 14.5902
lfemur -13.8511 2.1969 -16.9853
ltibia 24.3863
lfoot -22.8419 1.71443
ltoes -22.4645
1284
root -0.577461 17.5636 -2.31964 511.541 95.3979 500.082
lowerback -8.65239 -2.5889 -0.90397
upperback 0.208457 -3.36319 0.298013
thorax 5.13799 -1.68401 0.380866
lowerneck -7.19338 -12.7243 -7.58884
upperneck 15.736 -17.5063 7.35381
head 7.32903 -8.28192 1.91738
rclavicle -1.10325e-014 9.54166e-015
rhumerus -5.07213 62.4037 -41.2391
rradius 114.807
rwrist 51.4724
rhand 13.2578 15.5034
rfingers 7.12502
rthumb 38.2093 -10.2386
lclavicle -1.10325e-014 9.54166e-015
lhumerus -65.5315 -36.4688 96.2121
lradius 70.5306
lwrist 4.6864
lhand -16.0907 55.8672
lfingers 7.12502
lthumb 10.1127 445.604
rfemur -28.5936 2.88568 12.9783
rtibia 43.871
rfoot -11.678 -12.4762
rtoes 13.7278
lfemur -14.4956 4.69899 -18.1106
ltibia 25.8846
lfoot -23.1094 2.11436
ltoes -22.8341
1285
root -0.671127 17.5299 -2.46465 526.125 97.5667 515.011
lowerback -8.49581 -2.27938 -0.873583
upperback 0.237697 -2.93747 -0.0527956
thorax 5.05257 -1.46883 0.0616746
lowerneck -7.14643 -12.3884 -7.27189
upperneck 15.8047 -17.0388 7.05021
head 7.25017 -8.06603 1.83953
rclavicle 1.25234e-014 -1.59028e-015
rhumerus -0.182444 62.0082 -36.7423
rradius 115.795
rwrist 50.991
rhand 11.3946 16.3674
rfingers 7.12502
rthumb 36.4479 -9.83778
lclavicle 1.25234e-014 -1.59028e-015
lhumerus -62.1162 -35.9915 94.294
lradius 70.6613
lwrist 4.46375
lhand -16.5198 56.5656
lfingers 7.12502
lthumb 9.69866 446.322
rfemur -29.1218 -0.145569 14.4135
rtibia 48.3392
rfoot -11.5734 -13.9175
rtoes 16.5204
lfemur -15.2328 7.29735 -19.1485
ltibia 27.6518
lfoot -23.5032 2.19931
ltoes -22.953
1286
root -0.757779 17.4936 -2.60987 533.86 99.9659 523.123
lowerback -8.43488 -1.98389 -0.80613
upperback 0.315194 -2.53133 -0.431335
thorax 5.0744 -1.26171 -0.316341
lowerneck -6.96822 -12.0269 -7.00964
upperneck 15.6434 -16.547 6.89482
head 7.09315 -7.83972 1.82943
rclavicle 6.16232e-015 2.38542e-015
rhumerus 4.89905 61.2615 -32.0381
rradius 116.761
rwrist 50.5829
rhand 9.27798 17.2393
rfingers 7.12502
rthumb 34.4412 -9.44546
lclavicle 6.16232e-015 2.38542e-015
lhumerus -58.7138 -35.1957 92.5339
lradius 70.9037
lwrist 4.92603
lhand -16.7069 55.4635
lfingers 7.12502
lthumb 9.51815 445.229
rfemur -29.5378 -2.9581 15.7694
rtibia 52.9436
rfoot -10.9559 -15.1999
rtoes 16.7091
lfemur -15.9773 9.78961 -20.1402
ltibia 29.4447
lfoot -23.9093 1.93027
ltoes -22.9394
1287
root -0.839567 17.454 -2.75206 538.262 102.457 527.877
lowerback -8.47799 -1.71453 -0.721529
upperback 0.404117 -2.16186 -0.765503
thorax 5.17425 -1.07221 -0.667224
lowerneck -6.94956 -11.6522 -6.83969
upperneck 15.6043 -16.0369 6.79516
head 7.01683 -7.59669 1.8357
rclavicle 4.57205e-015 1.98785e-014
rhumerus 9.59769 60.1556 -27.7267
rradius 117.598
rwrist 50.3944
rhand 8.63489 21.3545
rfingers 7.12502
rthumb 33.8305 -5.46669
lclavicle 4.57205e-015 1.98785e-014
lhumerus -55.5353 -34.3605 91.3806
lradius 71.4256
lwrist 6.09333
lhand -17.1068 55.2879
lfingers 7.12502
lthumb 9.13227 445.07
rfemur -29.8225 -5.60558 17.1016
rtibia 57.4321
rfoot -9.03143 -16.035
rtoes 18.9355
lfemur -16.6555 12.1963 -21.0058
ltibia 31.0222
lfoot -24.2154 1.42752
ltoes -22.5118
1288
root -0.898218 17.4059 -2.89065 541.957 104.883 532.204
lowerback -8.51482 -1.52581 -0.895266
upperback 0.545746 -1.8669 -1.17946
thorax 5.33642 -0.92455 -0.966636
lowerneck -6.99552 -11.2222 -6.65481
upperneck 15.7272 -15.4479 6.62606
head 6.99294 -7.31373 1.81806
rclavicle 5.60573e-014 4.77083e-015
rhumerus 14.4673 58.8215 -23.5131
rradius 118.274
rwrist 49.8668
rhand 5.16308 18.4405
rfingers 7.12502
rthumb 30.5255 -9.05028
lclavicle 5.60573e-014 4.77083e-015
lhumerus -52.8324 -33.7302 90.9883
lradius 72.0132
lwrist 7.74754
lhand -17.6086 55.585
lfingers 7.12502
lthumb 8.64803 445.388
rfemur -29.4316 -8.31015 17.8321
rtibia 61.488
rfoot -6.55054 -16.5558
rtoes 24.9542
lfemur -16.6468 14.4473 -22.1506
ltibia 31.8816
lfoot -24.4287 0.934418
ltoes -22.3037
1289
root -0.955547 17.3601 -3.02635 543.397 107.232 534.131
lowerback -8.50178 -1.34163 -0.654059
upperback 0.522707 -1.62853 -1.48553
thorax 5.29117 -0.795233 -1.389
lowerneck -6.92056 -10.7741 -6.44212
upperneck 15.8918 -14.8227 6.33285
head 6.94919 -7.02336 1.76663
rclavicle -2.8625e-014 -1.03368e-014
rhumerus 19.0246 57.3261 -19.8045
rradius 118.847
rwrist 49.0126
rhand 3.50227 19.5592
rfingers 7.12502
rthumb 28.9404 -8.21478
lclavicle -2.8625e-014 -1.03368e-014
lhumerus -50.6004 -33.377 91.2324
lradius 72.6202
lwrist 10.1468
lhand -18.2942 55.8375
lfingers 7.12502
lthumb 7.9864 445.667
rfemur -28.8403 -10.8504 18.7835
rtibia 65.0819
rfoot -3.35128 -16.7845
rtoes 28.4941
lfemur -16.6434 16.3734 -22.8557
ltibia 32.4008
lfoot -24.4353 0.678566
ltoes -22.9056
1290
root -1.02418 17.3205 -3.15662 543.178 109.62 534.093
lowerback -8.34937 -1.06214 0.0793099
upperback 0.239581 -1.32697 -1.63145
thorax 4.89398 -0.627633 -1.90549
lowerneck -6.56166 -10.3438 -6.22721
upperneck 15.9575 -14.2156 5.97631
head 6.82388 -6.75504 1.70886
rclavicle -1.19271e-015 1.35174e-014
rhumerus 22.501 55.8769 -17.1568
rradius 119.366
rwrist 48.2349
rhand 1.79049 21.1483
rfingers 7.12502
rthumb 27.3042 -6.89461
lclavicle -1.19271e-015 1.35174e-014
lhumerus -48.7326 -33.2744 91.9455
lradius 73.2393
lwrist 12.1474
lhand -18.2431 55.7837
lfingers 7.12502
lthumb 8.03571 445.611
rfemur -28.3059 -12.9459 20.287
rtibia 68.183
rfoot -2.04512 -16.3108
rtoes 26.5362
lfemur -17.014 17.8433 -22.9692
ltibia 32.9964
lfoot -24.3646 0.819763
ltoes -23.3201
1291
root -1.0878 17.2875 -3.28577 544 111.927 535.018
lowerback -8.26391 -0.785422 0.517581
upperback -0.136446 -0.989106 -1.90212
thorax 4.45253 -0.451193 -2.3849
lowerneck -6.17531 -9.94828 -5.93642
upperneck 15.9578 -13.6545 5.56786
head 6.67034 -6.50924 1.61841
rclavicle -4.37326e-015 2.70347e-014
rhumerus 25.4182 54.3885 -15.1688
rradius 119.795
rwrist 47.3721
rhand -0.258726 22.1317
rfingers 7.12502
rthumb 25.3425 -6.20439
lclavicle -4.37326e-015 2.70347e-014
lhumerus -46.8187 -33.2395 92.7211
lradius 73.781
lwrist 13.3789
lhand -17.0017 55.4708
lfingers 7.12502
lthumb 9.23372 445.249
rfemur -27.5731 -14.8445 21.1963
rtibia 70.6146
rfoot 1.5978 -15.2901
rtoes 26.9582
lfemur -17.5198 18.7457 -23.5966
ltibia 33.4955
lfoot -24.3677 1.11584
ltoes -22.5973
1292
root -1.13955 17.263 -3.42139 546.491 114.04 537.551
lowerback -8.46289 -0.587612 0.366816
upperback -0.539778 -0.68331 -2.41383
thorax 4.15369 -0.299112 -2.79469
lowerneck -6.12171 -9.58451 -5.74718
upperneck 16.3221 -13.1854 5.4834
head 6.72981 -6.27192 1.60622
rclavicle -3.95581e-014 1.90833e-014
rhumerus 27.9533 52.7131 -13.7666
rradius 120.096
rwrist 46.3386
rhand -2.5827 23.0022
rfingers 7.12502
rthumb 23.1144 -5.63121
lclavicle -3.95581e-014 1.90833e-014
lhumerus -44.8317 -33.3241 93.6563
lradius 74.2034
lwrist 14.6591
lhand -16.0531 55.1415
lfingers 7.12502
lthumb 10.1489 444.877
rfemur -26.6424 -16.8553 20.9912
rtibia 72.2575
rfoot 4.40036 -12.5245
rtoes 19.7759
lfemur -18.1709 19.0191 -25.2727
ltibia 33.7722
lfoot -24.3595 1.23458
ltoes -21.6717
